PathFileType	4	(X/Y/Z)	/Users/itak/Documents/Research/Walk-IL/dataset/trc/00098_00007.trc
DataRate	CameraRate	NumFrames	NumMarkers	Units	OrigDataRate	OrigDataStartFrame	OrigNumFrames
100.000000	100.000000	4	53	mm	100.000000	278	556
Frame#	Time	RPSI			LPSI			L3			STRN			T10			C7			CLAV			RBAK			LBAK			LSHO			LUPA			LAEL			LAOL			LWTS			LWPS			LFRA			LIFD			LHPS			LHTS			RSHO			RUPA			RAEL			RAOL			RWTS			RWPS			RFRA			RIFD			RHTS			RHPS			RBHD			LFHD			RFHD			LBHD			LHIP			RHIP			RASI			LASI			LKNE			LTHI			LANK			LTIP			LTOE			LMT1			LMT5			LHEE			RKNE			RTHI			RANK			RTIP			RTOE			RMT1			RMT5			RHEE			
		X1	Y1	Z1	X2	Y2	Z2	X3	Y3	Z3	X4	Y4	Z4	X5	Y5	Z5	X6	Y6	Z6	X7	Y7	Z7	X8	Y8	Z8	X9	Y9	Z9	X10	Y10	Z10	X11	Y11	Z11	X12	Y12	Z12	X13	Y13	Z13	X14	Y14	Z14	X15	Y15	Z15	X16	Y16	Z16	X17	Y17	Z17	X18	Y18	Z18	X19	Y19	Z19	X20	Y20	Z20	X21	Y21	Z21	X22	Y22	Z22	X23	Y23	Z23	X24	Y24	Z24	X25	Y25	Z25	X26	Y26	Z26	X27	Y27	Z27	X28	Y28	Z28	X29	Y29	Z29	X30	Y30	Z30	X31	Y31	Z31	X32	Y32	Z32	X33	Y33	Z33	X34	Y34	Z34	X35	Y35	Z35	X36	Y36	Z36	X37	Y37	Z37	X38	Y38	Z38	X39	Y39	Z39	X40	Y40	Z40	X41	Y41	Z41	X42	Y42	Z42	X43	Y43	Z43	X44	Y44	Z44	X45	Y45	Z45	X46	Y46	Z46	X47	Y47	Z47	X48	Y48	Z48	X49	Y49	Z49	X50	Y50	Z50	X51	Y51	Z51	X52	Y52	Z52	X53	Y53	Z53	

279	2.78	-906.1521606445312	1113.785278320312	-238.1501770019531	-915.713623046875	1108.773681640625	-373.7318725585938	-917.2191162109375	1149.982666015625	-310.4273986816406	-693.5123901367188	1348.87353515625	-320.3072509765625	-949.4783325195312	1302.554809570312	-316.5589294433594	-905.6692504882812	1593.751708984375	-333.2274780273438	-726.138916015625	1484.750610351562	-320.999755859375	-964.18017578125	1408.590454101562	-247.1664886474609	-911.2945556640625	1575.797241210938	-436.2722473144531	-821.5206298828125	1561.48876953125	-500.7020263671875	-833.5761108398438	1429.5458984375	-571.9925537109375	-806.2667846679688	1211.698608398438	-594.3389282226562	-875.6006469726562	1194.64013671875	-543.5839233398438	-690.7537231445312	963.2646484375	-540.7727661132812	-766.0338745117188	930.935546875	-575.88330078125	-780.9110107421875	1097.001220703125	-596.5941162109375	-666.8773193359375	772.5386352539062	-512.1875	-730.6712646484375	858.6398315429688	-572.3444213867188	-667.4400634765625	874.8330078125	-548.27734375	-854.5968627929688	1572.687133789062	-150.5070648193359	-873.2219848632812	1499.124633789062	-87.59860229492188	-896.4926147460938	1206.808349609375	-65.63915252685547	-898.4966430664062	1205.095703125	-162.8172607421875	-767.3261108398438	956.2697143554688	-70.89564514160156	-843.6575317382812	944.6243286132812	-41.33493423461914	-877.9255981445312	1133.030517578125	-48.50349807739258	-758.0308837890625	758.584228515625	-84.60268402099609	-746.18359375	845.5036010742188	-63.62174224853516	-814.1652221679688	842.9976196289062	-34.56757354736328	-865.6456298828125	1760.825317382812	-248.9473571777344	-704.5128784179688	1830.576293945312	-381.4562377929688	-704.1461181640625	1833.319946289062	-251.3971405029297	-874.0521240234375	1762.022094726562	-384.4323425292969	-829.0794067382812	1016.172058105469	-484.7384643554688	-766.1556396484375	1028.728393554688	-126.0239639282227	-691.9422607421875	1098.320068359375	-189.4433746337891	-719.898193359375	1086.361206054688	-452.0138854980469	-743.8359985351562	504.4708557128906	-454.0520324707031	-780.8995971679688	656.3724975585938	-476.4898681640625	-1185.259399414062	201.4980316162109	-437.8735961914062	-984.7571411132812	370.4405212402344	-468.511474609375	-1063.485595703125	23.60415077209473	-378.8660583496094	-1100.192260742188	82.99181365966797	-349.1481018066406	-1134.904052734375	87.52574920654297	-457.2503662109375	-1207.971801757812	265.5550231933594	-375.9471435546875	-664.3289184570312	547.1378784179688	-190.1582946777344	-705.3755493164062	820.9387817382812	-141.1954650878906	-711.0921020507812	27.70698356628418	-215.1042175292969	-666.9344482421875	408.4673767089844	-179.9462127685547	-484.5606994628906	47.19468688964844	-282.8843994140625	-546.6104125976562	36.57911682128906	-319.4331665039062	-577.0604248046875	40.96460342407227	-202.3147430419922	-770.7877197265625	33.01140594482422	-261.1055297851562	
280	2.79	-896.5740966796875	1114.574462890625	-237.6688232421875	-906.3138427734375	1109.14892578125	-373.2136840820312	-907.7052612304688	1150.571044921875	-309.8524169921875	-684.0419311523438	1349.784423828125	-320.2262573242188	-939.9420776367188	1303.173095703125	-315.7147521972656	-896.2435302734375	1594.522216796875	-332.2830505371094	-716.8087768554688	1485.599731445312	-320.9349365234375	-954.409423828125	1409.434204101562	-245.8376007080078	-902.448974609375	1576.473999023438	-435.2805786132812	-813.0982055664062	1562.01318359375	-500.2648315429688	-825.7713623046875	1429.953369140625	-571.2954711914062	-798.9810791015625	1212.0673828125	-593.7318725585938	-868.0855712890625	1195.278442382812	-542.6256103515625	-685.2581787109375	962.5296020507812	-541.1943969726562	-760.9624633789062	930.9930419921875	-576.1079711914062	-774.4140625	1097.233764648438	-596.271484375	-663.0037231445312	771.5100708007812	-513.4762573242188	-726.2818603515625	858.3916625976562	-573.0064086914062	-662.7459716796875	873.940185546875	-549.11865234375	-844.3668823242188	1573.575561523438	-149.82080078125	-862.5262451171875	1500.059448242188	-86.70164489746094	-884.3932495117188	1207.645751953125	-63.6629753112793	-887.3681640625	1205.630737304688	-160.7358093261719	-753.2406616210938	958.2070922851562	-69.52719116210938	-829.2337646484375	945.9017333984375	-39.17177200317383	-865.1430053710938	1133.994262695312	-46.49400329589844	-742.2098999023438	760.5223999023438	-82.55425262451172	-731.0594482421875	847.664306640625	-61.99755859375	-798.7169799804688	844.6280517578125	-32.280029296875	-855.9844360351562	1761.606689453125	-248.4377899169922	-695.1972045898438	1831.4443359375	-381.2774353027344	-694.5759887695312	1834.269775390625	-251.2333679199219	-864.6393432617188	1762.7451171875	-383.9288330078125	-819.1439819335938	1016.508666992188	-484.1045227050781	-756.7687377929688	1029.778442382812	-125.4274139404297	-682.2703247070312	1099.3984375	-188.8056945800781	-710.4317016601562	1087.276489257812	-451.25244140625	-722.587890625	506.2281799316406	-452.9175720214844	-763.3052368164062	657.4034423828125	-475.4578857421875	-1167.28125	208.0382385253906	-435.8404541015625	-964.1806640625	373.7776794433594	-467.0738220214844	-1049.298461914062	24.23193550109863	-380.51904296875	-1083.661865234375	86.67523193359375	-349.0616760253906	-1120.066040039062	92.929443359375	-456.5995788574219	-1187.908081054688	272.1753845214844	-373.2787780761719	-660.4024047851562	546.6082153320312	-188.6222381591797	-698.0807495117188	821.228515625	-140.2389678955078	-711.1338500976562	27.65333366394043	-214.9991912841797	-664.4135131835938	407.9458923339844	-178.6362762451172	-484.3758239746094	46.46239471435547	-282.8715209960938	-546.6068115234375	36.27692413330078	-319.2019653320312	-576.9909057617188	40.73981475830078	-201.9342956542969	-770.8331298828125	32.9510383605957	-261.0995788574219	
281	2.8	-887.1626586914062	1115.303466796875	-237.3122100830078	-896.961669921875	1109.5869140625	-372.8290405273438	-898.3157958984375	1151.150512695312	-309.3955993652344	-674.6928100585938	1350.68994140625	-320.148681640625	-930.53515625	1303.79296875	-314.9833679199219	-886.9052734375	1595.292846679688	-331.4259643554688	-707.5626831054688	1486.463012695312	-320.9208679199219	-944.74560546875	1410.297973632812	-244.6074523925781	-893.678955078125	1577.164672851562	-434.364013671875	-804.74365234375	1562.567749023438	-499.8966369628906	-818.0527954101562	1430.389404296875	-570.6599731445312	-791.8339233398438	1212.461791992188	-593.1363525390625	-860.654052734375	1195.953857421875	-541.6070556640625	-679.829345703125	961.8718872070312	-541.6841430664062	-755.9810180664062	931.117919921875	-576.2943725585938	-768.0481567382812	1097.502563476562	-595.955078125	-659.1045532226562	770.5753784179688	-514.9032592773438	-721.97216796875	858.2222900390625	-573.6889038085938	-658.0817260742188	873.1635131835938	-550.1072387695312	-834.268310546875	1574.493041992188	-149.2263946533203	-851.9356689453125	1501.031982421875	-85.88356781005859	-872.2067260742188	1208.516845703125	-61.70841598510742	-876.1651611328125	1206.165771484375	-158.6617889404297	-739.0973510742188	960.1856689453125	-68.12837982177734	-814.7072143554688	947.2659912109375	-36.97737503051758	-852.259765625	1135.02001953125	-44.5015869140625	-726.3430786132812	762.5311279296875	-80.46136474609375	-715.8611450195312	849.8862915039062	-60.34268188476562	-783.2015380859375	846.3489379882812	-29.95086860656738	-846.354736328125	1762.390991210938	-248.0034484863281	-685.9016723632812	1832.28955078125	-381.1681823730469	-685.0174560546875	1835.196899414062	-251.1429595947266	-855.2570190429688	1763.475708007812	-383.4945983886719	-809.1177368164062	1016.983520507812	-483.5814514160156	-747.7113647460938	1030.70751953125	-124.843376159668	-672.9383544921875	1100.3779296875	-188.0563201904297	-700.97119140625	1088.22412109375	-450.465087890625	-701.6292724609375	508.3232727050781	-451.7575988769531	-745.8905029296875	658.7052612304688	-474.4419555664062	-1148.209106445312	213.0957489013672	-433.8492126464844	-943.5366821289062	376.7037048339844	-465.5298461914062	-1031.940063476562	25.51355361938477	-381.905517578125	-1064.885375976562	89.95337677001953	-348.8919677734375	-1102.494262695312	97.68617248535156	-456.0401916503906	-1167.791748046875	276.9153442382812	-370.67578125	-656.6925048828125	546.0523071289062	-187.0799255371094	-691.0305786132812	821.4318237304688	-139.2509460449219	-711.1979370117188	27.5872917175293	-214.8835754394531	-662.0272827148438	407.4465026855469	-177.3731994628906	-484.2057800292969	45.87600708007812	-282.8116149902344	-546.585693359375	36.06443023681641	-318.9467468261719	-576.9478149414062	40.52473831176758	-201.5221099853516	-770.8546142578125	32.9392204284668	-261.0474548339844	
282	2.81	-877.900634765625	1115.970825195312	-237.0512084960938	-887.6569213867188	1110.08740234375	-372.5518493652344	-889.04052734375	1151.731079101562	-309.0296936035156	-665.4472045898438	1351.595336914062	-320.0624694824219	-921.2346801757812	1304.422729492188	-314.3345642089844	-877.6449584960938	1596.067993164062	-330.652587890625	-698.3881225585938	1487.344360351562	-320.9454956054688	-935.1796264648438	1411.182861328125	-243.4702606201172	-884.9686279296875	1577.8701171875	-433.5233154296875	-796.428955078125	1563.167236328125	-499.5896606445312	-810.3895263671875	1430.876586914062	-570.0890502929688	-784.8284912109375	1212.9013671875	-592.564453125	-853.3135986328125	1196.691528320312	-540.5344848632812	-674.4680786132812	961.311279296875	-542.2377319335938	-751.0951538085938	931.3231201171875	-576.42431640625	-761.8218994140625	1097.823486328125	-595.650390625	-655.1807250976562	769.7584228515625	-516.3985595703125	-717.7427368164062	858.1434936523438	-574.3511352539062	-653.462890625	872.5077514648438	-551.2081298828125	-824.2942504882812	1575.448852539062	-148.721435546875	-841.4506225585938	1502.05322265625	-85.14263916015625	-859.9766235351562	1209.435913085938	-59.79824829101562	-864.8992309570312	1206.72216796875	-156.6214599609375	-724.9295654296875	962.2186889648438	-66.68917846679688	-800.1144409179688	948.72705078125	-34.78010940551758	-839.3219604492188	1136.11865234375	-42.54351043701172	-710.4417724609375	764.6398315429688	-78.34407043457031	-700.6077270507812	852.1883544921875	-58.65539169311523	-767.649658203125	848.1674194335938	-27.61450958251953	-836.7617797851562	1763.196899414062	-247.6414794921875	-676.6212158203125	1833.103271484375	-381.12939453125	-675.4676513671875	1836.095336914062	-251.1220092773438	-845.91259765625	1764.229858398438	-383.1259765625	-799.0407104492188	1017.591979980469	-483.1470336914062	-738.9542846679688	1031.507446289062	-124.2575073242188	-663.9098510742188	1101.2626953125	-187.1945037841797	-691.5247192382812	1089.2021484375	-449.6519165039062	-681.0236206054688	510.739501953125	-450.5899963378906	-728.7089233398438	660.266357421875	-473.4625244140625	-1128.100463867188	216.5873718261719	-431.9740295410156	-922.9072875976562	379.244140625	-463.8636474609375	-1011.467529296875	27.24905014038086	-382.9326477050781	-1043.960205078125	92.69640350341797	-348.6336059570312	-1082.248901367188	101.6286010742188	-455.5803527832031	-1147.668090820312	279.736083984375	-368.2220458984375	-653.1710205078125	545.4751586914062	-185.578857421875	-684.174072265625	821.5568237304688	-138.2619018554688	-711.2896728515625	27.51078414916992	-214.7816162109375	-659.7706909179688	406.9701843261719	-176.1862030029297	-484.041259765625	45.40575790405273	-282.7203979492188	-546.5409545898438	35.93094635009766	-318.690185546875	-576.9279174804688	40.32218170166016	-201.1056823730469	-770.8575439453125	32.97378158569336	-260.9601135253906	
